/* XPM */
static char *dinartether16[] = {
/* columns rows colors chars-per-pixel */
"16 16 31 1 ",
"  c #000000320154",
". c #00000008020B",
"X c #00A6013202D1",
"o c #014E01CF033B",
"O c #052604E0042F",
"+ c #0540051C04C4",
"@ c #11160E820878",
"# c #132D106B095A",
"$ c #35082B8A13A0",
"% c #37CE2DDA1458",
"& c #89656F4B2C2C",
"* c #8FF0746C2DA9",
"= c #8F5074102E04",
"- c #93B9775A2E70",
"; c #934C77332EFB",
": c #947377E82E80",
"> c #942277CC2EED",
", c #94E478502ED3",
"< c #968E796E2E8F",
"1 c #9667797B2F1B",
"2 c #9A157C823083",
"3 c #9CC67EA3312E",
"4 c #A8D288223434",
"5 c #ACC28B5A3592",
"6 c #B1978F2536E1",
"7 c #BF739A403AE4",
"8 c #C2339C703BA9",
"9 c #C3519D243B53",
"0 c #C89CA1893D75",
"q c #C999A2483D9B",
"w c None",
/* pixels */
"wwwwwwwwwwwwwwww",
"wwwwwwwwwwwwwwww",
"wwwww>,&w34wwwww",
"wwww,wwwww%6wwww",
"www1wwwwww @0www",
"wwwwwwwwwwwww9ww",
"ww>#wwwwwwwwwwww",
"ww=+wwwwwwwwwwww",
"ww;wwwwwwwwwwwww",
"ww2wwwwwwwwww-ww",
"wwww.wwwwwwww<ww",
"www7$.wwwwow:www",
"wwwwqwwoXOw1wwww",
"wwwww85ww*<wwwww",
"wwwwwwwwwwwwwwww",
"wwwwwwwwwwwwwwww"
};
