/* XPM */
static char *dinartether32[] = {
/* columns rows colors chars-per-pixel */
"32 32 102 2 ",
"   c #00510050004F",
".  c #0100010000FF",
"X  c #01EA01ED01F6",
"o  c #026E027E02A5",
"O  c #02D802D802D8",
"+  c #021302720388",
"@  c #02BF035D0524",
"#  c #037A038D03BC",
"$  c #041C04200429",
"%  c #03B103FD04C1",
"&  c #04F204F70503",
"*  c #05BE05BE05C0",
"=  c #06EA06EE06F7",
"-  c #082808280828",
";  c #091709170917",
":  c #09A209A209A1",
">  c #87376E822EF6",
",  c #87FC6F0D2EED",
"<  c #88756F622EE3",
"1  c #890E6FCC2EDB",
"2  c #89B370422ED5",
"3  c #8B86718C2EBF",
"4  c #8DC773232EA4",
"5  c #8C3C72112EC5",
"6  c #8D4872EB2F29",
"7  c #8E2B73672E9E",
"8  c #8EF373F72E92",
"9  c #8FCD74902E87",
"0  c #903674DC2E80",
"q  c #90B575352E81",
"w  c #917475B92E66",
"e  c #926A766A2E6A",
"r  c #9405778B2E51",
"t  c #94E078272E45",
"y  c #955C787D2E40",
"u  c #95F678FA2E75",
"i  c #9679795B2E7F",
"p  c #973C79D02E24",
"a  c #97BA7A352E4D",
"s  c #98227A722E18",
"d  c #99A87B862E09",
"f  c #994F7B792EC4",
"g  c #9AB47C482E10",
"h  c #9BB97CFA2DEE",
"j  c #9C007D2D2DEB",
"k  c #9CC07DB52DE3",
"l  c #9D247DFC2DDC",
"z  c #9D967E4C2DD6",
"x  c #9E6D7EEB2DE6",
"c  c #9FB47FCB2DBB",
"v  c #8CE772E43003",
"b  c #8E2673D13034",
"n  c #97637AAB30D9",
"m  c #94E3792531DC",
"M  c #A00E800B2DB5",
"N  c #9E418040334D",
"B  c #A14780E72DA6",
"V  c #A1ED815C2D9C",
"C  c #A2D782022D92",
"Z  c #A33B82482D8D",
"A  c #A083805D2DB0",
"S  c #A18181382E36",
"D  c #A2F282682EBF",
"F  c #A5C884B12FA5",
"G  c #A09D81062FDA",
"H  c #A32C82EC3015",
"J  c #A2EA83463204",
"K  c #A51984A13140",
"L  c #A16B836C367B",
"P  c #A9B6885B32B0",
"I  c #AA6A891A3399",
"U  c #AF5F8C60327E",
"Y  c #A87C88363570",
"T  c #B52D90E233A4",
"R  c #B40390DC36A8",
"E  c #BCDA96DC3561",
"W  c #B34590D13880",
"Q  c #B255906D3979",
"!  c #B7B9950A3C36",
"~  c #BC5597F33ABF",
"^  c #B94D96653D09",
"/  c #BE549A063D0C",
"(  c #C2779BAC3824",
")  c #C5629E3C39D6",
"_  c #C0D39C093DDD",
"`  c #C2BB9D5A3DB4",
"'  c #C6939FB63C27",
"]  c #C4CE9F103E74",
"[  c #C94AA0DA392B",
"{  c #CFA9A5CD3A81",
"}  c #CA68A2E83DC2",
"|  c #CB58A3B83E46",
" . c #CD6DA4F03D34",
".. c #D227A8103C41",
"X. c #D319A8B63C19",
"o. c #DA0FAE5E3E78",
"O. c #DD6BB1123F89",
"+. c #DE47B1C03FBF",
"@. c #E2B2B4CE3F47",
"#. c #E1D9B4543FC6",
"$. c #E602B7744045",
"%. c None",
/* pixels */
"%.%.%.%.%.%.%.%.%.%.%.%.%.%.%.%.%.%.%.%.%.%.%.%.%.%.%.%.%.%.%.%.",
"%.%.%.%.%.%.%.%.%.%.%.%.%.%.%.%.%.%.%.%.%.%.%.%.%.%.%.%.%.%.%.%.",
"%.%.%.%.%.%.%.%.%.%.%.%.%.%.%.%.%.%.%.%.%.%.%.%.%.%.%.%.%.%.%.%.",
"%.%.%.%.%.%.%.%.%.%.%.%.%.%.%.2 3 < %.%.%.%.%.%.%.%.%.%.%.%.%.%.",
"%.%.%.%.%.%.%.%.%.%.%.3 g c x k j z S D f %.%.%.%.%.%.%.%.%.%.%.",
"%.%.%.%.%.%.%.%.%.> z l 8 %.%.%.%.%.%.%.R E P %.%.%.%.%.%.%.%.%.",
"%.%.%.%.%.%.%.%.e M 5 %.%.%.%.% %.%.%.%.%.%. .{ L %.%.%.%.%.%.%.",
"%.%.%.%.%.%.%.t l %.%.%.= - %.%.%.%.O . X %.%.] @.! %.%.%.%.%.%.",
"%.%.%.%.%.%.9 z %.%.& * %.%.%.%.%.%.%.$ .   + %._ $.%.%.%.%.%.%.",
"%.%.%.%.%.%.c %.%.* $ %.%.%.%.%.%.%.%.%.%.X . %.%.} O.%.%.%.%.%.",
"%.%.%.%.%.d q %.%.& %.%.%.%.%.%.%.%.%.%.%.%.* $ %.%.X.` %.%.%.%.",
"%.%.%.%.%.x %.%.$ %.%.%.%.%.%.%.%.%.%.%.%.%.%.$ $ %.N ..%.%.%.%.",
"%.%.%.%.e i %.o $ %.%.%.%.%.%.%.%.%.%.%.%.%.%.%.$ %.%.E %.%.%.%.",
"%.%.%.%.g v %.X %.%.%.%.%.%.%.%.%.%.%.%.%.%.%.%.& %.%.H W %.%.%.",
"%.%.%.%.l %.%.. %.%.%.%.%.%.%.%.%.%.%.%.%.%.%.%.%.%.%.u I %.%.%.",
"%.%.%.%.l %.%.o %.%.%.%.%.%.%.%.%.%.%.%.%.%.%.%.%.%.%.w G %.%.%.",
"%.%.%.%.z %.%.* %.%.%.%.%.%.%.%.%.%.%.%.%.%.%.%.%.%.%.w g %.%.%.",
"%.%.%.%.l %.%.- %.%.%.%.%.%.%.%.%.%.%.%.%.%.%.%.%.%.%.y p %.%.%.",
"%.%.%.%.g b %.: %.%.%.%.%.%.%.%.%.%.%.%.%.%.%.%.%.%.%.h 0 %.%.%.",
"%.%.%.%.e J %.%.; %.%.%.%.%.%.%.%.%.%.%.%.%.%.%.%.%.%.B %.%.%.%.",
"%.%.%.%.%.U %.%.O & %.%.%.%.%.%.%.%.%.%.%.%.%.%.%.%.7 x %.%.%.%.",
"%.%.%.%.%.K ~ %.& . & %.%.%.%.%.%.%.%.%.%.%.$ & %.%.c 4 %.%.%.%.",
"%.%.%.%.%.%.[ %.%.X   & %.%.%.%.%.%.%.%.%.o O %.%.r x %.%.%.%.%.",
"%.%.%.%.%.%.Y o.%.%.# X O & %.%.%.%.& o . = %.%.3 C %.%.%.%.%.%.",
"%.%.%.%.%.%.%.' +.%.%.%.%.O . X X .     $ %.%.4 Z 2 %.%.%.%.%.%.",
"%.%.%.%.%.%.%.%.| #.Q %.%.%.%.%.%.%.@ %.%.%.s V , %.%.%.%.%.%.%.",
"%.%.%.%.%.%.%.%.%.^ o.( n %.%.%.%.%.%.%.a V d %.%.%.%.%.%.%.%.%.",
"%.%.%.%.%.%.%.%.%.%.%./ ) T F x k x A M a %.%.%.%.%.%.%.%.%.%.%.",
"%.%.%.%.%.%.%.%.%.%.%.%.%.%.%.m 6 1 %.%.%.%.%.%.%.%.%.%.%.%.%.%.",
"%.%.%.%.%.%.%.%.%.%.%.%.%.%.%.%.%.%.%.%.%.%.%.%.%.%.%.%.%.%.%.%.",
"%.%.%.%.%.%.%.%.%.%.%.%.%.%.%.%.%.%.%.%.%.%.%.%.%.%.%.%.%.%.%.%.",
"%.%.%.%.%.%.%.%.%.%.%.%.%.%.%.%.%.%.%.%.%.%.%.%.%.%.%.%.%.%.%.%."
};
