/* XPM */
static char *dinartether128[] = {
/* columns rows colors chars-per-pixel */
"128 127 84 1 ",
"  c #00F500F500F5",
". c #0B3F0B3F0B3F",
"X c #12DA12DA12DA",
"o c #1BED1BED1BED",
"O c #231023102310",
"+ c #2A142A142A14",
"@ c #366C366C366C",
"# c #396A379432DC",
"$ c #3D183A3432C3",
"% c #42323DE232CB",
"& c #462940B432A8",
"* c #4B72448632B9",
"= c #4FB94854355E",
"- c #5016479931BC",
"; c #53E34A9A32BB",
": c #595D4E3E31A5",
"> c #5D73515D3252",
", c #6325554F31C0",
"< c #673C58633235",
"1 c #6BE55B7B3147",
"2 c #71145EE23015",
"3 c #7B7266332F8E",
"4 c #7F5468F22F5E",
"5 c #6F9C5FE2379D",
"6 c #74B761803019",
"7 c #78BF64823084",
"8 c #73B662E937E9",
"9 c #79BE67623859",
"0 c #7C1A691C3884",
"q c #451945194519",
"w c #843D6C692F1F",
"e c #88F26FBA2EE3",
"r c #8D05729C2EAC",
"t c #927C76772E6B",
"y c #969079582E30",
"u c #9C497D642DF0",
"i c #83966CCB3233",
"p c #808A6C6738D6",
"a c #8B1B71F83154",
"s c #866770BA3945",
"d c #8BF174CA397C",
"f c #90A4774B3623",
"g c #95DD7A9B3491",
"h c #9EA57FB83032",
"j c #93257A2D3A37",
"k c #99E07F223A98",
"l c #9DF282193AC8",
"z c #A53D83B82D88",
"x c #AA9B877C2D2C",
"c c #AC5B88BC2D26",
"v c #B1BD8D1E2F05",
"b c #A4AB84B7329B",
"n c #AD1D8BC0360D",
"m c #A29385943B58",
"M c #A6B2889F3BA0",
"N c #ACD18CD53AD1",
"B c #B3C68ED82FE9",
"V c #B6AE913430F3",
"C c #BC2C957F3231",
"Z c #BF7398473391",
"A c #B50993363C99",
"S c #B98796183B42",
"D c #BDF199CA3D34",
"F c #C6059D673516",
"G c #C9329FC53570",
"H c #C4629E243C16",
"J c #CE1EA3BB36E3",
"K c #C7EFA13B3E1D",
"L c #CCCFA4B23DF7",
"P c #D078A5AA37A5",
"I c #D2A0A768386D",
"U c #D593AA3F3B1B",
"Y c #DB34AE833BE0",
"T c #DE34B1463E33",
"R c #E404B5263CE0",
"E c #E7F3B8743E98",
"W c #EB9ABB253EF5",
"Q c #E006B3083FCA",
"! c #E2C7B50F4002",
"~ c #E840B91A4067",
"^ c #EDE7BD354081",
"/ c #F12ABFA840E3",
"( c #F4B0C24E414F",
") c None",
/* pixels */
"))))))))))))))))))))))))))))))))))))))))))))))))))))))))))))))))))))))))))))))))))))))))))))))))))))))))))))))))))))))))))))))))",
"))))))))))))))))))))))))))))))))))))))))))))))))))))))))))))))))))))))))))))))))))))))))))))))))))))))))))))))))))))))))))))))))",
"))))))))))))))))))))))))))))))))))))))))))))))))))))))))))))))))))))))))))))))))))))))))))))))))))))))))))))))))))))))))))))))))",
"))))))))))))))))))))))))))))))))))))))))))))))))))))))))))))))))))))))))))))))))))))))))))))))))))))))))))))))))))))))))))))))))",
"))))))))))))))))))))))))))))))))))))))))))))))))))))))))))))))))))))))))))))))))))))))))))))))))))))))))))))))))))))))))))))))))",
"))))))))))))))))))))))))))))))))))))))))))))))))))))))))))))))))))))))))))))))))))))))))))))))))))))))))))))))))))))))))))))))))",
"))))))))))))))))))))))))))))))))))))))))))))))))))))))))))))))))))))))))))))))))))))))))))))))))))))))))))))))))))))))))))))))))",
"))))))))))))))))))))))))))))))))))))))))))))))))))))))))))))))))))))))))))))))))))))))))))))))))))))))))))))))))))))))))))))))))",
"))))))))))))))))))))))))))))))))))))))))))))))))))))))))))))))))))))))))))))))))))))))))))))))))))))))))))))))))))))))))))))))))",
"))))))))))))))))))))))))))))))))))))))))))))))))))))))))))))))))))))))))))))))))))))))))))))))))))))))))))))))))))))))))))))))))",
"))))))))))))))))))))))))))))))))))))))))))))))))))))))))))))))))))))))))))))))))))))))))))))))))))))))))))))))))))))))))))))))))",
"))))))))))))))))))))))))))))))))))))))))))))))))))))))))))))))))))))))))))))))))))))))))))))))))))))))))))))))))))))))))))))))))",
"))))))))))))))))))))))))))))))))))))))))))))))))))))))))))))))))))))))))))))))))))))))))))))))))))))))))))))))))))))))))))))))))",
")))))))))))))))))))))))))))))))))))))))))))))))))))))))))))))$%&*&&&%$))))))))))))))))))))))))))))))))))))))))))))))))))))))))))",
"))))))))))))))))))))))))))))))))))))))))))))))))))))))$*:,24eryyuuuytre31,;%))))))))))))))))))))))))))))))))))))))))))))))))))))",
"))))))))))))))))))))))))))))))))))))))))))))))))))#*,6ruzxcccccxxxxxccxccxzue2:*))))))))))))))))))))))))))))))))))))))))))))))))",
"))))))))))))))))))))))))))))))))))))))))))))))))*1euxccccxxxxxxxxxxxxxxxxxxcccxu3,&)))))))))))))))))))))))))))))))))))))))))))))",
")))))))))))))))))))))))))))))))))))))))))))))%,whxcxxxxxxxxxxxxxxxxxxxxxxxxxxxxxcxu3:$))))))))))))))))))))))))))))))))))))))))))",
")))))))))))))))))))))))))))))))))))))))))))*1txccxxxxxxxxcccccccxxcccxccxxxxxxxxxxxczr,%))))))))))))))))))))))))))))))))))))))))",
")))))))))))))))))))))))))))))))))))))))))&1uxxxxxxxxxccxzute4621<<<263etuncBvcxxxxxxxcxt,%))))))))))))))))))))))))))))))))))))))",
")))))))))))))))))))))))))))))))))))))))%1yxcxxxxxxcczy41:*%))))))))))))%*>8fNHJJZVnxxxxxxr:#))))))))))))))))))))))))))))))))))))",
")))))))))))))))))))))))))))))))))))))):rxxxxxxxxczr2:&))))))))))))))))))))))*<sATWRPGCvxxxzw-)))))))))))))))))))))))))))))))))))",
"))))))))))))))))))))))))))))))))))))%6zcxxxxxcxy6:%))))))))))))))))))))))))))))&,dQ~(WRJFvxxu,$)))))))))))))))))))))))))))))))))",
")))))))))))))))))))))))))))))))))));rcxxxxxxxt1*))))))))))))))))))))))))))))))))))*0D^((WRJCvx3*))))))))))))))))))))))))))))))))",
")))))))))))))))))))))))))))))))))#,uccxxxcxy1%))))))))))))))))))))))))))))))))))))))&9D(((^^QZBf:)))))))))))))))))))))))))))))))",
"))))))))))))))))))))))))))))))))%6xxxxxcch1&)))))))))))))))))X. X)))))))))))))))))))))&0Q^(((^YFz,))))))))))))))))))))))))))))))",
")))))))))))))))))))))))))))))))&wxxxxxcce-)))))))))))))))))X.     ))))))))))))))))))))))=l~((((^TZ6$))))))))))))))))))))))))))))",
"))))))))))))))))))))))))))))))*ecxxxxcu<$)))))))))))))XX).        .)))))))X. ..X))))))))))1Q(((((WPi%)))))))))))))))))))))))))))",
")))))))))))))))))))))))))))))*rxxxxxxr;))))))))))))))X      .    .))))...        ..))))))));N((((((Rg%))))))))))))))))))))))))))",
"))))))))))))))))))))))))))))*rxxxxcxw*)))))))))))X..    ..))))))))))))              .)))))))&j^(/(((^l&)))))))))))))))))))))))))",
")))))))))))))))))))))))))))%ecxxxxz6$)))))))))))X     X))))))))))))))).               .)))))))p!((((((l$))))))))))))))))))))))))",
"))))))))))))))))))))))))))$4xxxxxx1#))))))))))))    .)))))))))))))))))).                o))))))8Q((/(((d))))))))))))))))))))))))",
"))))))))))))))))))))))))))2xxxxxz1)))))))))X .X   .))))))))))))))))))))))X .             X))))))8Q(((((^8)))))))))))))))))))))))",
"))))))))))))))))))))))))),zxxxxx1))))))))).      o))))))))))))))))))))))))))).            X))))))8!((//(Q,))))))))))))))))))))))",
"))))))))))))))))))))))))*ucxxxx2#)))))))).     X))))))))))))))))))))))))))))))X            X))))))0^(((((D=)))))))))))))))))))))",
")))))))))))))))))))))))%ecxxxc4%)))))))).    .)))))))))))))))))))))))))))))))))).           )))))))d^(/(((k)))))))))))))))))))))",
")))))))))))))))))))))))1xcxxcr&))))))))     X))))))))))))))))))))))))))))))))))))X          .))))))%M(((((~1))))))))))))))))))))",
"))))))))))))))))))))));ucxxxu;)))))))).    X))))))))))))))))))))))))))))))))))))))).         X))))))=H(((/(K=)))))))))))))))))))",
")))))))))))))))))))))$wcxxxx<)))))))).    X)))))))))))))))))))))))))))))))))))))))))X         )))))))<Q(((((d)))))))))))))))))))",
")))))))))))))))))))))>zxxxcw$))))))).    )))))))))))))))))))))))))))))))))))))))))))))        X)))))))p^((/(Q>))))))))))))))))))",
"))))))))))))))))))))%rcxxcu;))))))))    )))))))))))))))))))))))))))))))))))))))))))))))X       )))))))&mW((((m))))))))))))))))))",
")))))))))))))))))))),zxxxc2))))))))X   )))))))))))))))))))))))))))))))))))))))))))))))))X. X    )))))))>ZW(((!,)))))))))))))))))",
")))))))))))))))))))$rxxxcf&))))))))   X))))))))))))))))))))))))))))))))))))))))))))))))))))).   X))))))$iJ^(((m)))))))))))))))))",
")))))))))))))))))))>xxxxx<)))))))).  X)))))))))))))))))))))))))))))))))))))))))))))))))))))).    )))))));zP(((Q>))))))))))))))))",
"))))))))))))))))))#wcxxxt%))))))X   .)))))))))))))))))))))))))))))))))))))))))))))))))))))))X    .)))))))3vY(((j))))))))))))))))",
"))))))))))))))))));zxxxx<))))))X    )))))))))))))))))))))))))))))))))))))))))))))))))))))))))     X)))))):zZW((Lq)))))))))))))))",
"))))))))))))))))))2cxxcu*)))))X    X))))))))))))))))))))))))))))))))))))))))))))))))))))))))).     ))))))$ecGW((9)))))))))))))))",
")))))))))))))))))%tcxxc6))))))     ))))))))))))))))))))))))))))))))))))))))))))))))))))))))))).    X)))))),zcY((M)))))))))))))))",
"))))))))))))))))):zxxxz:)))))     .))))))))))))))))))))))))))))))))))))))))))))))))))))))))))))X   X))))))&yxZW(Q=))))))))))))))",
")))))))))))))))))2cxxcr%))))X     ))))))))))))))))))))))))))))))))))))))))))))))))))))))))))))))   .)))))))3ccUW~8))))))))))))))",
"))))))))))))))))$rcxxc2))))).    .)))))))))))))))))))))))))))))))))))))))))))))))))))))))))))))).   )))))))>xxVW(l))))))))))))))",
"))))))))))))))))*hcxxz:)))))     .))))))))))))))))))))))))))))))))))))))))))))))))))))))))))))))   .)))))))*uxxJ(H&)))))))))))))",
"))))))))))))))))>xxxcy&))))X     X))))))))))))))))))))))))))))))))))))))))))))))))))))))))))))))    ))))))))wcxC^!>)))))))))))))",
"))))))))))))))))2cxxcw))))).     ))))))))))))))))))))))))))))))))))))))))))))))))))))))))))))))).  .))))))))2cxcU^9)))))))))))))",
"))))))))))))))))wcxxx2))))).     ))))))))))))))))))))))))))))))))))))))))))))))))))))))))))))))))   ))))))))>zxxZ^j)))))))))))))",
")))))))))))))))%txxxx>)))))      ))))))))))))))))))))))))))))))))))))))))))))))))))))))))))))))))X  ))))))))*uxxBRM)))))))))))))",
")))))))))))))))*uxxcz*)))))     .))))))))))))))))))))))))))))))@))))))))))))))))))))))))))))))))))X X)))))))%tcxxKH%))))))))))))",
")))))))))))))));zcxxy*)))))     .))))))))))))))))))))))))))))))+)))))))))))))))))))))))))))))))))))X.))))))))ecxzBQ=))))))))))))",
")))))))))))))))>xxxcr$))))X     .)))))))))))))))))))))))))))))))))))))))))))))))))))))))))))))))))))X))))))))3cxxBL>))))))))))))",
"))))))))))))))),xxxce))))).     .))))))))))))))))))))))))))))))))))))))))))))))))))))))))))))))))))))))))))))2cxxxH<))))))))))))",
")))))))))))))))1cxxc4))))).     X))))))))))))))))))))))))))))))q)))))))))))))))))))))))))))))))))))))))))))))<xxxxZ<))))))))))))",
")))))))))))))))2cxcc3))))))     .))))))))))))))))))))))))))))))))))))))))))))))))))))))))))))))))))))))))))))<xxxxS1))))))))))))",
")))))))))))))))6cxxc6)))))).    ))))))))))))))))))))))))))))))))))))))))))))))))))))))))))))))))))))))))))))),xxxxB<))))))))))))",
")))))))))))))))6ccxc6)))))))   .))))))))))))))))))))))))))))))))))))))))))))))))))))))))))))))))))))))))))))),xxxxn<))))))))))))",
")))))))))))))))6cxcc6))))))).  X))))))))))))))))))))))))))))))))))))))))))))))))))))))))))))))))))))))))))))),xxxxx,))))))))))))",
")))))))))))))))2cxxc3)))))))X  )))))))))))))))))))))))))))))))))))))))))))))))))))))))))))))))))))))))))))))),xxxxx>))))))))))))",
")))))))))))))))1cxxc4))))))))  X))))))))))o))))))))))))))))))))))X)))))))))))))))))))))))))))))))))))))))))))1cxxxz:))))))))))))",
"))))))))))))))),cxxxe)))))))). .))))))))))o))o))))))))))))))))))).))))))O+))O))))))))))))))))))))))))))))))))6cxxxz;))))))))))))",
")))))))))))))))>xxxcr$))))))). .)))))))))))))o))))o)O))))))o))))).))O)))))))))o)O)+)X))))))))))))))))))))))))3cxxxu*))))))))))))",
"))))))))))))))):zxxxu&)))))))X  )))))))))))))o))))O))))))))X))))) ))O)))))))))o)o))))))))))))))))))))))))))))ecxxcy&))))))))))))",
")))))))))))))))*ucxxz-))))))o  X))))))))))O)))))))O))))O)O)o)))))X)))o)))O))))o)o)))o)))))))))))))))))))))))%tcxxcr$))))))))))))",
")))))))))))))))%ycxxx>)))))).  )))))))))))))))))))))))))))))))))))))))))))))))))))))))))))))))))))))))))))))*ucxxcw)))))))))))))",
"))))))))))))))))exxxc6))))))X  .o))))))))))))))))))))))))))))))))))))))))))))))))))))))))))))))))))))))))))):zcxxc2)))))))))))))",
"))))))))))))))))2xxxca)))))))   .)))))))))))))))))))))))))))))))))))))))))))))))))))))))))))))))))))))))))))2xxxxx>)))))))))))))",
")))))))))))))))),xxxnb*))))))..Oo)))))))))))))))))))))))))))))))))))))))))))))))))))))))))))))))))))))))))))exxxxh-)))))))))))))",
"))))))))))))))))*ucxxV1))))))) .oo)))))))))))))))))))))))))))))))))))))))))))))))))))))))))))))))))))))))))*ucxxxt%)))))))))))))",
"))))))))))))))))$rcxxVf))))))). .o)))))))))))))))))))))))))))))))))))))))))))))))))))))))))))))))))))))))))>xxxxc3))))))))))))))",
")))))))))))))))))2cxxvS&))))))X   .))))))))))))))))))))))))))))))))))))))))))))))))))))))))))))))))))))))))3cxxxx>))))))))))))))",
"))))))))))))))))):zcxnU1))))))).   X)))))))))))))))))))))))))))))))))))))))))))))))))))))))))))))o))))))))*ucxxcu*))))))))))))))",
")))))))))))))))))%tcxcUm)))))))X    o)))))))))))))))))))))))))))))))))))))))))))))))))))))))))))).)))))))),xxxxc3)))))))))))))))",
"))))))))))))))))))6xxxGU;)))))))     ))))))))))))))))))))))))))))))))))))))))))))))))))))))))))).X)))))))$rcxxxz>)))))))))))))))",
"))))))))))))))))));zxxZWd))))))).     ))))))))))))))))))))))))))))))))))))))))))))))))))))))))o  )))))))):zxxxcy%)))))))))))))))",
"))))))))))))))))))#exxvEQ=)))))))      )))))))))))))))))))))))))))))))))))))))))))))))))))))X . X))))))))wcxxxx2))))))))))))))))",
"))))))))))))))))))),xxcU^s))))))).      ))))))))))))))))))))))))))))))))))))))))))))))))))).   .))))))));zxxxcz*))))))))))))))))",
")))))))))))))))))))%rxxF^Q=))))))X       o)))))))))))))))))))))))))))))))))))))))))))))))).    ))))))))$wcxxxc3)))))))))))))))))",
"))))))))))))))))))))<xxC!^j)))))))        X)))))))))))))))))))))))))))))))))))))))))))))X     .))))))))>zxxxcz;)))))))))))))))))",
"))))))))))))))))))))%rccY(Q<))))))X        X))))))))))))))))))))))))))))))))))))))))))).      ))))))))%tcxxxc3))))))))))))))))))",
"))))))))))))))))))))),zxG^(A&))))))X        X))))))))))))))))))))))))))))))))))))))))).      )))))))))6xxxxxu*))))))))))))))))))",
")))))))))))))))))))))$wxB~(/d)))))))         .)))))))))))))))))))))))))))))))))))))).       X)))))))):zxxxxx2)))))))))))))))))))",
"))))))))))))))))))))));znU((Q1))))))          X)))))))))))))))))))))))))))))))))))).       .))))))))*tczxxct&)))))))))))))))))))",
")))))))))))))))))))))))1xZ~((Q=)))))X          .X+)))))))))))))))))))))))))))))))X         ))))))))$icxxxxz>))))))))))))))))))))",
")))))))))))))))))))))))%ecQ(^~A&)))))            X))))))))))))))))))))))))o.oXX).         X))))))))6xxxxxx3)))))))))))))))))))))",
"))))))))))))))))))))))));uFW(((l%))))X             X))))))))))))))))))))XX            ..)))))))))),zxxxxct%)))))))))))))))))))))",
")))))))))))))))))))))))))<xY(((^j$))))). .           ..X))))))))))))))).             .))))))))))),zxxxxxu;))))))))))))))))))))))",
"))))))))))))))))))))))))))6Z^(((^d$))))))))).              . .X))))o.X               X))))))))))>zxxxxxz,)))))))))))))))))))))))",
"))))))))))))))))))))))))))%wU((((^j%)))))))))X.                                     ))))))))))),uxxxxxx2))))))))))))))))))))))))",
")))))))))))))))))))))))))))*gE(W((^l*))))))))))))X.                                ))))))))))#1zcxxxcx3$))))))))))))))))))))))))",
"))))))))))))))))))))))))))))*n((((((Sq)))))))))))))X                              ))))))))))%6zcxxxxc4%)))))))))))))))))))))))))",
")))))))))))))))))))))))))))));D((((((Q<))))))))))))))X                           X)))))))))*exxxxxccw%))))))))))))))))))))))))))",
"))))))))))))))))))))))))))))));H(/((((Qs%))))))))))))))..                      ..))))))))#,yxxxxxxx3%)))))))))))))))))))))))))))",
")))))))))))))))))))))))))))))));A((((((^M:))))))))))))))).X)))))))X....    .X. )))))))))*3zcxxxxxx6$))))))))))))))))))))))))))))",
"))))))))))))))))))))))))))))))))=m^((((((H7*))))))))))))))))))))))))))))..))))))))))))%1uxxcxxxcz1$)))))))))))))))))))))))))))))",
")))))))))))))))))))))))))))))))))%sQ(((((/Uu1&))))))))))))))))))))))))))))))))))))))%,rxcxxxxxcu:)))))))))))))))))))))))))))))))",
"))))))))))))))))))))))))))))))))))),Q((((((YVy1*))))))))))))))))))))))))))))))))))*,rxcxxxxxcze*))))))))))))))))))))))))))))))))",
"))))))))))))))))))))))))))))))))))))=m~(((((RZxu7:%))))))))))))))))))))))))))))%;6yxcxxxxxxxu1$)))))))))))))))))))))))))))))))))",
"))))))))))))))))))))))))))))))))))))))8H(((((WGncxy6:&))))))))))))))))))))))%:1rzcxxxxxxxxxw;)))))))))))))))))))))))))))))))))))",
")))))))))))))))))))))))))))))))))))))))=dQ((/((QCcxczue1>*&$))))))))))$%-:<wyzccxxxxxxxcxt,$))))))))))))))))))))))))))))))))))))",
")))))))))))))))))))))))))))))))))))))))));kY((((WJvxxcccxzyrw362112634ryhzccxxxxxxxxxxxy1%))))))))))))))))))))))))))))))))))))))",
")))))))))))))))))))))))))))))))))))))))))))>jQ^((/!KBxccxxxcccccccccxccccxxxxxxxxxxczt<%))))))))))))))))))))))))))))))))))))))))",
")))))))))))))))))))))))))))))))))))))))))))))=0S~(((TGvcxxxxxcxxxxxxxxxxxxxxxxxxccuw>%))))))))))))))))))))))))))))))))))))))))))",
")))))))))))))))))))))))))))))))))))))))))))))))%,dH!((EPCccxxcxxxxxxxxxxxxxcccxue,*)))))))))))))))))))))))))))))))))))))))))))))",
"))))))))))))))))))))))))))))))))))))))))))))))))))%>pMKTETJZvcccxcxccccccczur6,*))))))))))))))))))))))))))))))))))))))))))))))))",
"))))))))))))))))))))))))))))))))))))))))))))))))))))))&>8dlMNnnbzzuuytr46,:*$)))))))))))))))))))))))))))))))))))))))))))))))))))",
"))))))))))))))))))))))))))))))))))))))))))))))))))))))))))))&**;***&&%#)))))))))))))))))))))))))))))))))))))))))))))))))))))))))",
"))))))))))))))))))))))))))))))))))))))))))))))))))))))))))))))))))))))))))))))))))))))))))))))))))))))))))))))))))))))))))))))))",
"))))))))))))))))))))))))))))))))))))))))))))))))))))))))))))))))))))))))))))))))))))))))))))))))))))))))))))))))))))))))))))))))",
"))))))))))))))))))))))))))))))))))))))))))))))))))))))))))))))))))))))))))))))))))))))))))))))))))))))))))))))))))))))))))))))))",
"))))))))))))))))))))))))))))))))))))))))))))))))))))))))))))))))))))))))))))))))))))))))))))))))))))))))))))))))))))))))))))))))",
"))))))))))))))))))))))))))))))))))))))))))))))))))))))))))))))))))))))))))))))))))))))))))))))))))))))))))))))))))))))))))))))))",
"))))))))))))))))))))))))))))))))))))))))))))))))))))))))))))))))))))))))))))))))))))))))))))))))))))))))))))))))))))))))))))))))",
"))))))))))))))))))))))))))))))))))))))))))))))))))))))))))))))))))))))))))))))))))))))))))))))))))))))))))))))))))))))))))))))))",
"))))))))))))))))))))))))))))))))))))))))))))))))))))))))))))))))))))))))))))))))))))))))))))))))))))))))))))))))))))))))))))))))",
"))))))))))))))))))))))))))))))))))))))))))))))))))))))))))))))))))))))))))))))))))))))))))))))))))))))))))))))))))))))))))))))))",
"))))))))))))))))))))))))))))))))))))))))))))))))))))))))))))))))))))))))))))))))))))))))))))))))))))))))))))))))))))))))))))))))",
"))))))))))))))))))))))))))))))))))))))))))))))))))))))))))))))))))))))))))))))))))))))))))))))))))))))))))))))))))))))))))))))))",
"))))))))))))))))))))))))))))))))))))))))))))))))))))))))))))))))))))))))))))))))))))))))))))))))))))))))))))))))))))))))))))))))",
"))))))))))))))))))))))))))))))))))))))))))))))))))))))))))))))))))))))))))))))))))))))))))))))))))))))))))))))))))))))))))))))))"
};
