/* XPM */
static char *dinartether64[] = {
/* columns rows colors chars-per-pixel */
"64 64 64 1 ",
"  c #027402740274",
". c #09B809B809B8",
"X c #10F110F110F1",
"o c #19D519D519D5",
"O c #63E5559330BB",
"+ c #67CD58543087",
"@ c #6C8D5BAF304C",
"# c #71115EDF3013",
"$ c #738860872FAC",
"% c #7A89658B2F90",
"& c #7F4968E92F5B",
"* c #753B61E5302B",
"= c #780863CA2FBB",
"- c #7CBE68A234FD",
"; c #7D856A1A3863",
": c #84336C602F1D",
"> c #88506F482EEA",
", c #8CF572952EC3",
"< c #926176622E64",
"1 c #963E791D2E34",
"2 c #9AFA7C7D2E19",
"3 c #84B56E1033E8",
"4 c #88CE6FD82FBD",
"5 c #83916EAA3924",
"6 c #8F1874E6318F",
"7 c #87D971D53977",
"8 c #8BEF74D939BC",
"9 c #96DB7B793529",
"0 c #95757BA73988",
"q c #99CB7EA9391F",
"w c #9EE2808A3293",
"e c #9D16813D39E3",
"r c #A45F83162D7D",
"t c #A97786AC2D36",
"y c #ACB488FE2D2C",
"u c #B2A48DC72F04",
"i c #A22F83263373",
"p c #ABB489E5331F",
"a c #A45586E43B88",
"s c #A71588E83BA4",
"d c #ABC68C443B94",
"f c #B2938EA43255",
"g c #B75891823058",
"h c #BC06959B32EA",
"j c #B42592913C95",
"k c #BE1E99553B0F",
"l c #C23B9A75345C",
"z c #C955A00D3609",
"x c #C3129D9D3DB6",
"c c #CB8BA1A3360A",
"v c #C80AA1483E0D",
"b c #CCAFA42F3C68",
"n c #D115A5E43720",
"m c #D1ADA7C93C72",
"M c #D5DFAAC93C55",
"N c #D8E2AC3139A0",
"B c #DFA1B1993B8C",
"V c #E2E0B48F3DDF",
"C c #EC82BBC63EE7",
"Z c #E460B642402F",
"A c #ECEEBC824087",
"S c #F129BFB34115",
"D c #F5BCC3134160",
"F c None",
/* pixels */
"FFFFFFFFFFFFFFFFFFFFFFFFFFFFFFFFFFFFFFFFFFFFFFFFFFFFFFFFFFFFFFFF",
"FFFFFFFFFFFFFFFFFFFFFFFFFFFFFFFFFFFFFFFFFFFFFFFFFFFFFFFFFFFFFFFF",
"FFFFFFFFFFFFFFFFFFFFFFFFFFFFFFFFFFFFFFFFFFFFFFFFFFFFFFFFFFFFFFFF",
"FFFFFFFFFFFFFFFFFFFFFFFFFFFFFFFFFFFFFFFFFFFFFFFFFFFFFFFFFFFFFFFF",
"FFFFFFFFFFFFFFFFFFFFFFFFFFFFFFFFFFFFFFFFFFFFFFFFFFFFFFFFFFFFFFFF",
"FFFFFFFFFFFFFFFFFFFFFFFFFFFFFFFFFFFFFFFFFFFFFFFFFFFFFFFFFFFFFFFF",
"FFFFFFFFFFFFFFFFFFFFFFFFFFFFFFFFFFFFFFFFFFFFFFFFFFFFFFFFFFFFFFFF",
"FFFFFFFFFFFFFFFFFFFFFFFFFFF*:,<111<,>=@FFFFFFFFFFFFFFFFFFFFFFFFF",
"FFFFFFFFFFFFFFFFFFFFFFFO&1rtyyyyyyyyttt24@FFFFFFFFFFFFFFFFFFFFFF",
"FFFFFFFFFFFFFFFFFFFFF@,rtyttr11<<<<2ryyyyt1=FFFFFFFFFFFFFFFFFFFF",
"FFFFFFFFFFFFFFFFFFFO,tttt1:#FFFFFFFFF-0fllgy1$FFFFFFFFFFFFFFFFFF",
"FFFFFFFFFFFFFFFFFF%rytr>@FFFFFFFFFFFFFFF7jMVcf,FFFFFFFFFFFFFFFFF",
"FFFFFFFFFFFFFFFFF,tyr,OFFFFFFFFFFFFFFFFFFFFjZCNp#FFFFFFFFFFFFFFF",
"FFFFFFFFFFFFFFFO1tt1@FFFFFFFF.   FFFFFFFFFFF8bDAb3FFFFFFFFFFFFFF",
"FFFFFFFFFFFFFFO1yt,FFFFFFF. . . .FF.     .FFFFjSDV0FFFFFFFFFFFFF",
"FFFFFFFFFFFFFF1yr3FFFFFF.  FFFFFFFF        .FFFaADAqFFFFFFFFFFFF",
"FFFFFFFFFFFFF,tt&FFFFF . FFFFFFFFFFFF.      .FFFaADZ7FFFFFFFFFFF",
"FFFFFFFFFFFF:yt>FFFF.  .FFFFFFFFFFFFFFF.      FFFsSDMFFFFFFFFFFF",
"FFFFFFFFFFF@ry<FFFF.  FFFFFFFFFFFFFFFFFFF     .FFFkDDjFFFFFFFFFF",
"FFFFFFFFFFF1y2OFFF.  FFFFFFFFFFFFFFFFFFFFF     FFFFmDA8FFFFFFFFF",
"FFFFFFFFFF=ty=FFFF  FFFFFFFFFFFFFFFFFFFFFFFF   .FFF5VDvFFFFFFFFF",
"FFFFFFFFFF1y1FFFF. FFFFFFFFFFFFFFFFFFFFFFFFFFF  FFFFiCA0FFFFFFFF",
"FFFFFFFFF*tt*FFF  FFFFFFFFFFFFFFFFFFFFFFFFFFFF.  FFF@lDxFFFFFFFF",
"FFFFFFFFF6y1FFF  .FFFFFFFFFFFFFFFFFFFFFFFFFFFFF  .FFF<NZFFFFFFFF",
"FFFFFFFFFrt:FF.  FFFFFFFFFFFFFFFFFFFFFFFFFFFFFFF  FFF$gCsFFFFFFF",
"FFFFFFFF*tr+FF   FFFFFFFFFFFFFFFFFFFFFFFFFFFFFFF  FFFFrcxFFFFFFF",
"FFFFFFFF>y1FFF   FFFFFFFFFFFFFFFFFFFFFFFFFFFFFFF  FFFF<gMFFFFFFF",
"FFFFFFFF<y,FF.  .FFFFFFFFFFFFFFFFFFFFFFFFFFFFFFF. FFFF>yb7FFFFFF",
"FFFFFFFF2y:FF.  .FFFFFFFFFFFFFFFFFFFFFFFFFFFFFFFF.FFFF*thqFFFFFF",
"FFFFFFFFrt*FF   FFFFFFFFFFFFFFFFFFFFFFFFFFFFFFFFFFFFFF@tfqFFFFFF",
"FFFFFFF@rt@FF   FFFFFFFFFFFFFFFFFFFFFFFFFFFFFFFFFFFFFF@ry9FFFFFF",
"FFFFFFF@tt@FFF  FFFFFFFFFFFFFFFFFFFFFFFFFFFFFFFFFFFFFFFry6FFFFFF",
"FFFFFFF@rt@FFF .FFFFFFFFFFFFFFFFFFFFFFFFFFFFFFFFFFFFFFFry4FFFFFF",
"FFFFFFF@rt#FFF. FFFFFFFFFFFFFFFFFFFFFFFFFFFFFFFFFFFFFF+ry:FFFFFF",
"FFFFFFFFrt*FFFF FFFFFFFFFFFFFFFFFFFFFFFFFFFFFFFFFFFFFF@tt&FFFFFF",
"FFFFFFFF2t:FFF..FFFFFFFFFFFFFFFFFFFFFFFFFFFFFFFFFFFFFF%tt*FFFFFF",
"FFFFFFFF1y,FFF .FFFFFFFFFFFFFFFFFFFFFFFFFFFFFFFFFFFFFF>tr@FFFFFF",
"FFFFFFFF>y2FFFF.oFFFFFFFFFFFFFFFFFFFFFFFFFFFFFFFFFFFFF<y2FFFFFFF",
"FFFFFFFF$tp3FFF..FFFFFFFFFFFFFFFFFFFFFFFFFFFFFFFFFFFFFry<FFFFFFF",
"FFFFFFFFFrueFFF. .FFFFFFFFFFFFFFFFFFFFFFFFFFFFFFFFFFF-tt%FFFFFFF",
"FFFFFFFFF,ykFFFF  .FFFFFFFFFFFFFFFFFFFFFFFFFFFFF.FFFF<yrOFFFFFFF",
"FFFFFFFFF*tceFFF.   FFFFFFFFFFFFFFFFFFFFFFFFFF..FFFF@ty,FFFFFFFF",
"FFFFFFFFFF1lbFFFF   .FFFFFFFFFFFFFFFFFFFFFFFF   FFFF,yt@FFFFFFFF",
"FFFFFFFFFF%yVsFFF    .FFFFFFFFFFFFFFFFFFFFFF   FFFF*ty<FFFFFFFFF",
"FFFFFFFFFFF1nZ5FFF     FFFFFFFFFFFFFFFFFFF.   FFFFF2yt@FFFFFFFFF",
"FFFFFFFFFFF@gCvFFF      FFFFFFFFFFFFFFFFF     FFFF6yy>FFFFFFFFFF",
"FFFFFFFFFFFF3MDjFFF      .FFFFFFFFFFX .     FFFFF-ty1FFFFFFFFFFF",
"FFFFFFFFFFFFFiADdFFFF.     .  .FFFF       .FFFFF%ttr@FFFFFFFFFFF",
"FFFFFFFFFFFFFFkDAjFFFFFF.                 FFFFF%tyr$FFFFFFFFFFFF",
"FFFFFFFFFFFFFF*mDDxFFFFFFF.              FFFFF>ttr%FFFFFFFFFFFFF",
"FFFFFFFFFFFFFFF;mDDM5FFFFFFF....       .FFFF@1tyr=FFFFFFFFFFFFFF",
"FFFFFFFFFFFFFFFFFxDDZwOFFFFFFFFFFFFFFFFFFFO>ryy2#FFFFFFFFFFFFFFF",
"FFFFFFFFFFFFFFFFFFsZDAh,@FFFFFFFFFFFFFFF@>wtyt,OFFFFFFFFFFFFFFFF",
"FFFFFFFFFFFFFFFFFFF5xADMf1>#OFFFFFFFF#:1ptyt1*FFFFFFFFFFFFFFFFFF",
"FFFFFFFFFFFFFFFFFFFFF8xACcutr211<<22rtyyyt1%FFFFFFFFFFFFFFFFFFFF",
"FFFFFFFFFFFFFFFFFFFFFFF5dbNcgyyyyyypytt2,$FFFFFFFFFFFFFFFFFFFFFF",
"FFFFFFFFFFFFFFFFFFFFFFFFFF5esppw211<>-@FFFFFFFFFFFFFFFFFFFFFFFFF",
"FFFFFFFFFFFFFFFFFFFFFFFFFFFFFFFFFFFFFFFFFFFFFFFFFFFFFFFFFFFFFFFF",
"FFFFFFFFFFFFFFFFFFFFFFFFFFFFFFFFFFFFFFFFFFFFFFFFFFFFFFFFFFFFFFFF",
"FFFFFFFFFFFFFFFFFFFFFFFFFFFFFFFFFFFFFFFFFFFFFFFFFFFFFFFFFFFFFFFF",
"FFFFFFFFFFFFFFFFFFFFFFFFFFFFFFFFFFFFFFFFFFFFFFFFFFFFFFFFFFFFFFFF",
"FFFFFFFFFFFFFFFFFFFFFFFFFFFFFFFFFFFFFFFFFFFFFFFFFFFFFFFFFFFFFFFF",
"FFFFFFFFFFFFFFFFFFFFFFFFFFFFFFFFFFFFFFFFFFFFFFFFFFFFFFFFFFFFFFFF",
"FFFFFFFFFFFFFFFFFFFFFFFFFFFFFFFFFFFFFFFFFFFFFFFFFFFFFFFFFFFFFFFF"
};
